<?xml version="1.0" encoding="UTF-8" standalone="no"?>
<!DOCTYPE svg PUBLIC "-//W3C//DTD SVG 1.1//EN"
 "http://www.w3.org/Graphics/SVG/1.1/DTD/svg11.dtd">
<!-- Generated by graphviz version 3.0.0 (20220226.1711)
 -->
<!-- Title: control_state Pages: 1 -->
<svg width="203pt" height="472pt"
 viewBox="0.00 0.00 203.00 471.74" xmlns="http://www.w3.org/2000/svg" xmlns:xlink="http://www.w3.org/1999/xlink">
<g id="graph0" class="graph" transform="scale(1 1) rotate(0) translate(4 467.74)">
<title>control_state</title>
<polygon fill="white" stroke="transparent" points="-4,4 -4,-467.74 199,-467.74 199,4 -4,4"/>
<g id="clust1" class="cluster">
<title>cluster_a</title>
<polygon fill="none" stroke="black" points="29,-308.74 29,-455.74 187,-455.74 187,-308.74 29,-308.74"/>
<text text-anchor="middle" x="108" y="-440.54" font-family="Times New Roman,serif" font-size="14.00">requests + shared queues</text>
</g>
<g id="clust2" class="cluster">
<title>cluster_b</title>
<polygon fill="none" stroke="black" points="8,-64 8,-300.74 142,-300.74 142,-64 8,-64"/>
<text text-anchor="middle" x="75" y="-285.54" font-family="Times New Roman,serif" font-size="14.00">components</text>
</g>
<!-- Send -->
<g id="node1" class="node">
<title>Send</title>
<ellipse fill="none" stroke="green" cx="94" cy="-406.74" rx="29.5" ry="18"/>
<text text-anchor="middle" x="94" y="-403.04" font-family="Times New Roman,serif" font-size="14.00">Send</text>
</g>
<!-- TryCull -->
<g id="node4" class="node">
<title>TryCull</title>
<ellipse fill="none" stroke="black" cx="94" cy="-334.74" rx="38.19" ry="18"/>
<text text-anchor="middle" x="94" y="-331.04" font-family="Times New Roman,serif" font-size="14.00">TryCull</text>
</g>
<!-- Send&#45;&gt;TryCull -->
<g id="edge1" class="edge">
<title>Send&#45;&gt;TryCull</title>
<path fill="none" stroke="black" d="M88.12,-388.8C87.29,-380.97 87.05,-371.49 87.41,-362.72"/>
<polygon fill="black" stroke="black" points="90.92,-362.75 88.14,-352.53 83.93,-362.25 90.92,-362.75"/>
</g>
<!-- Commit -->
<g id="node2" class="node">
<title>Commit</title>
<ellipse fill="none" stroke="black" cx="118" cy="-18" rx="40.09" ry="18"/>
<text text-anchor="middle" x="118" y="-14.3" font-family="Times New Roman,serif" font-size="14.00">Commit</text>
</g>
<!-- Commit&#45;&gt;Send -->
<g id="edge7" class="edge">
<title>Commit&#45;&gt;Send</title>
<path fill="none" stroke="black" d="M130.41,-35.23C136.06,-43.43 142.3,-53.79 146,-64 163.54,-112.41 162,-127.25 162,-178.74 162,-252.74 162,-252.74 162,-252.74 162,-298.15 161.41,-312.17 141,-352.74 135.18,-364.3 126.21,-375.3 117.66,-384.26"/>
<polygon fill="black" stroke="black" points="114.95,-382.03 110.34,-391.57 119.89,-386.98 114.95,-382.03"/>
</g>
<!-- Connect -->
<g id="node3" class="node">
<title>Connect</title>
<ellipse fill="none" stroke="black" cx="92" cy="-251.74" rx="41.69" ry="18"/>
<text text-anchor="middle" x="92" y="-248.04" font-family="Times New Roman,serif" font-size="14.00">Connect</text>
</g>
<!-- Lock -->
<g id="node6" class="node">
<title>Lock</title>
<ellipse fill="none" stroke="black" cx="60" cy="-179.74" rx="29.8" ry="18"/>
<text text-anchor="middle" x="60" y="-176.04" font-family="Times New Roman,serif" font-size="14.00">Lock</text>
</g>
<!-- Connect&#45;&gt;Lock -->
<g id="edge3" class="edge">
<title>Connect&#45;&gt;Lock</title>
<path fill="none" stroke="black" d="M84.25,-233.8C80.56,-225.71 76.06,-215.86 71.94,-206.85"/>
<polygon fill="black" stroke="black" points="75.02,-205.17 67.67,-197.53 68.65,-208.08 75.02,-205.17"/>
</g>
<!-- TryCull&#45;&gt;Send -->
<g id="edge2" class="edge">
<title>TryCull&#45;&gt;Send</title>
<path fill="none" stroke="black" d="M99.86,-352.53C100.7,-360.33 100.94,-369.81 100.6,-378.59"/>
<polygon fill="black" stroke="black" points="97.09,-378.57 99.88,-388.8 104.07,-379.07 97.09,-378.57"/>
</g>
<!-- TryCull&#45;&gt;Connect -->
<g id="edge8" class="edge">
<title>TryCull&#45;&gt;Connect</title>
<path fill="none" stroke="black" d="M93.58,-316.56C93.31,-305.93 92.97,-292.05 92.67,-279.94"/>
<polygon fill="black" stroke="black" points="96.17,-279.8 92.42,-269.89 89.17,-279.98 96.17,-279.8"/>
</g>
<!-- TryCullC -->
<g id="node5" class="node">
<title>TryCullC</title>
<ellipse fill="none" stroke="black" cx="75" cy="-98.87" rx="58.88" ry="26.74"/>
<text text-anchor="middle" x="75" y="-102.67" font-family="Times New Roman,serif" font-size="14.00">TryCull</text>
<text text-anchor="middle" x="75" y="-87.67" font-family="Times New Roman,serif" font-size="14.00">Component</text>
</g>
<!-- TryCullC&#45;&gt;Commit -->
<g id="edge6" class="edge">
<title>TryCullC&#45;&gt;Commit</title>
<path fill="none" stroke="black" d="M88.84,-72.48C93.73,-63.52 99.22,-53.45 104.1,-44.49"/>
<polygon fill="black" stroke="black" points="107.21,-46.09 108.93,-35.64 101.07,-42.74 107.21,-46.09"/>
</g>
<!-- TryCullC&#45;&gt;Connect -->
<g id="edge5" class="edge">
<title>TryCullC&#45;&gt;Connect</title>
<path fill="none" stroke="black" d="M87.37,-125.43C92,-136.35 96.69,-149.4 99,-161.74 102.83,-182.18 100.72,-205.64 97.85,-223.34"/>
<polygon fill="black" stroke="black" points="94.34,-223.07 96.01,-233.54 101.23,-224.32 94.34,-223.07"/>
</g>
<!-- Lock&#45;&gt;TryCullC -->
<g id="edge4" class="edge">
<title>Lock&#45;&gt;TryCullC</title>
<path fill="none" stroke="black" d="M63.25,-161.63C64.71,-153.99 66.48,-144.69 68.2,-135.64"/>
<polygon fill="black" stroke="black" points="71.67,-136.13 70.1,-125.65 64.79,-134.82 71.67,-136.13"/>
</g>
</g>
</svg>
